<mxfile host="Electron" agent="Mozilla/5.0 (Windows NT 10.0; Win64; x64) AppleWebKit/537.36 (KHTML, like Gecko) draw.io/27.0.9 Chrome/134.0.6998.205 Electron/35.4.0 Safari/537.36" version="27.0.9">
  <diagram name="Page-1" id="W9OQKDCMhxmLWAbxm8fR">
    <mxGraphModel dx="1111" dy="1751" grid="1" gridSize="10" guides="1" tooltips="1" connect="1" arrows="1" fold="1" page="1" pageScale="1" pageWidth="1200" pageHeight="1920" math="0" shadow="0">
      <root>
        <mxCell id="0" />
        <mxCell id="1" parent="0" />
        <mxCell id="Mt2DSFejxQS1Zab_X2QU-1" value="" style="rounded=0;whiteSpace=wrap;html=1;fillColor=none;dashed=1;" parent="1" vertex="1">
          <mxGeometry x="145" y="270" width="160" height="440" as="geometry" />
        </mxCell>
        <mxCell id="Mt2DSFejxQS1Zab_X2QU-3" value="&lt;b&gt;Sources&lt;/b&gt;" style="rounded=1;whiteSpace=wrap;html=1;fillColor=default;strokeColor=none;" parent="1" vertex="1">
          <mxGeometry x="165" y="230" width="120" height="60" as="geometry" />
        </mxCell>
        <mxCell id="Mt2DSFejxQS1Zab_X2QU-24" style="edgeStyle=orthogonalEdgeStyle;rounded=0;orthogonalLoop=1;jettySize=auto;html=1;entryX=0;entryY=0.5;entryDx=0;entryDy=0;" parent="1" source="Mt2DSFejxQS1Zab_X2QU-5" target="Mt2DSFejxQS1Zab_X2QU-12" edge="1">
          <mxGeometry relative="1" as="geometry" />
        </mxCell>
        <mxCell id="Mt2DSFejxQS1Zab_X2QU-25" style="edgeStyle=orthogonalEdgeStyle;rounded=0;orthogonalLoop=1;jettySize=auto;html=1;entryX=0;entryY=0.5;entryDx=0;entryDy=0;" parent="1" source="Mt2DSFejxQS1Zab_X2QU-5" target="Mt2DSFejxQS1Zab_X2QU-10" edge="1">
          <mxGeometry relative="1" as="geometry" />
        </mxCell>
        <mxCell id="Mt2DSFejxQS1Zab_X2QU-29" style="edgeStyle=orthogonalEdgeStyle;rounded=0;orthogonalLoop=1;jettySize=auto;html=1;entryX=0;entryY=0.5;entryDx=0;entryDy=0;" parent="1" source="Mt2DSFejxQS1Zab_X2QU-5" target="Mt2DSFejxQS1Zab_X2QU-11" edge="1">
          <mxGeometry relative="1" as="geometry" />
        </mxCell>
        <mxCell id="Mt2DSFejxQS1Zab_X2QU-5" value="&lt;b&gt;&lt;font style=&quot;font-size: 15px;&quot;&gt;CRM&lt;/font&gt;&lt;/b&gt;" style="image;aspect=fixed;html=1;points=[];align=center;fontSize=12;image=img/lib/azure2/general/Folder_Blank.svg;" parent="1" vertex="1">
          <mxGeometry x="194.19" y="375" width="61.61" height="50" as="geometry" />
        </mxCell>
        <mxCell id="Mt2DSFejxQS1Zab_X2QU-8" value="" style="rounded=1;whiteSpace=wrap;html=1;fillColor=none;strokeColor=#FFB570;" parent="1" vertex="1">
          <mxGeometry x="385" y="310" width="160" height="400" as="geometry" />
        </mxCell>
        <mxCell id="Mt2DSFejxQS1Zab_X2QU-9" value="&lt;b&gt;Bronze Layer&lt;/b&gt;" style="rounded=1;whiteSpace=wrap;html=1;fillColor=#fad7ac;strokeColor=#FFB570;" parent="1" vertex="1">
          <mxGeometry x="400" y="260" width="130" height="40" as="geometry" />
        </mxCell>
        <mxCell id="AcQt561uoarVermznv3J-9" style="edgeStyle=orthogonalEdgeStyle;rounded=0;orthogonalLoop=1;jettySize=auto;html=1;entryX=0;entryY=0.5;entryDx=0;entryDy=0;" parent="1" source="Mt2DSFejxQS1Zab_X2QU-10" target="AcQt561uoarVermznv3J-3" edge="1">
          <mxGeometry relative="1" as="geometry" />
        </mxCell>
        <mxCell id="Mt2DSFejxQS1Zab_X2QU-10" value="&lt;span style=&quot;font-weight: normal;&quot;&gt;crm_cust_info&lt;/span&gt;" style="rounded=1;whiteSpace=wrap;html=1;fillColor=#fad7ac;strokeColor=#FFB570;fontStyle=1" parent="1" vertex="1">
          <mxGeometry x="400" y="330" width="130" height="40" as="geometry" />
        </mxCell>
        <mxCell id="AcQt561uoarVermznv3J-10" style="edgeStyle=orthogonalEdgeStyle;rounded=0;orthogonalLoop=1;jettySize=auto;html=1;entryX=0;entryY=0.5;entryDx=0;entryDy=0;" parent="1" source="Mt2DSFejxQS1Zab_X2QU-11" target="AcQt561uoarVermznv3J-4" edge="1">
          <mxGeometry relative="1" as="geometry" />
        </mxCell>
        <mxCell id="Mt2DSFejxQS1Zab_X2QU-11" value="&lt;span style=&quot;font-weight: normal;&quot;&gt;crm_prd_info&lt;/span&gt;" style="rounded=1;whiteSpace=wrap;html=1;fillColor=#fad7ac;strokeColor=#FFB570;fontStyle=1" parent="1" vertex="1">
          <mxGeometry x="400" y="380" width="130" height="40" as="geometry" />
        </mxCell>
        <mxCell id="AcQt561uoarVermznv3J-11" style="edgeStyle=orthogonalEdgeStyle;rounded=0;orthogonalLoop=1;jettySize=auto;html=1;entryX=0;entryY=0.5;entryDx=0;entryDy=0;" parent="1" source="Mt2DSFejxQS1Zab_X2QU-12" target="AcQt561uoarVermznv3J-5" edge="1">
          <mxGeometry relative="1" as="geometry" />
        </mxCell>
        <mxCell id="Mt2DSFejxQS1Zab_X2QU-12" value="&lt;span style=&quot;font-weight: normal;&quot;&gt;crm_sales_details&lt;/span&gt;" style="rounded=1;whiteSpace=wrap;html=1;fillColor=#fad7ac;strokeColor=#FFB570;fontStyle=1" parent="1" vertex="1">
          <mxGeometry x="400" y="430" width="130" height="40" as="geometry" />
        </mxCell>
        <mxCell id="Mt2DSFejxQS1Zab_X2QU-34" style="edgeStyle=orthogonalEdgeStyle;rounded=0;orthogonalLoop=1;jettySize=auto;html=1;entryX=0;entryY=0.5;entryDx=0;entryDy=0;" parent="1" source="Mt2DSFejxQS1Zab_X2QU-13" target="Mt2DSFejxQS1Zab_X2QU-26" edge="1">
          <mxGeometry relative="1" as="geometry" />
        </mxCell>
        <mxCell id="Mt2DSFejxQS1Zab_X2QU-35" style="edgeStyle=orthogonalEdgeStyle;rounded=0;orthogonalLoop=1;jettySize=auto;html=1;entryX=0;entryY=0.5;entryDx=0;entryDy=0;" parent="1" source="Mt2DSFejxQS1Zab_X2QU-13" target="Mt2DSFejxQS1Zab_X2QU-28" edge="1">
          <mxGeometry relative="1" as="geometry" />
        </mxCell>
        <mxCell id="Mt2DSFejxQS1Zab_X2QU-36" style="edgeStyle=orthogonalEdgeStyle;rounded=0;orthogonalLoop=1;jettySize=auto;html=1;entryX=0;entryY=0.5;entryDx=0;entryDy=0;" parent="1" source="Mt2DSFejxQS1Zab_X2QU-13" target="Mt2DSFejxQS1Zab_X2QU-27" edge="1">
          <mxGeometry relative="1" as="geometry" />
        </mxCell>
        <mxCell id="Mt2DSFejxQS1Zab_X2QU-13" value="&lt;b&gt;&lt;font style=&quot;font-size: 15px;&quot;&gt;ERP&lt;/font&gt;&lt;/b&gt;" style="image;aspect=fixed;html=1;points=[];align=center;fontSize=12;image=img/lib/azure2/general/Folder_Blank.svg;" parent="1" vertex="1">
          <mxGeometry x="194.99" y="565.3199999999999" width="60.81" height="49.35" as="geometry" />
        </mxCell>
        <mxCell id="AcQt561uoarVermznv3J-12" style="edgeStyle=orthogonalEdgeStyle;rounded=0;orthogonalLoop=1;jettySize=auto;html=1;entryX=0;entryY=0.5;entryDx=0;entryDy=0;" parent="1" source="Mt2DSFejxQS1Zab_X2QU-26" target="AcQt561uoarVermznv3J-6" edge="1">
          <mxGeometry relative="1" as="geometry" />
        </mxCell>
        <mxCell id="Mt2DSFejxQS1Zab_X2QU-26" value="&lt;span style=&quot;font-weight: normal;&quot;&gt;erp_cust_az12&lt;/span&gt;" style="rounded=1;whiteSpace=wrap;html=1;fillColor=#fad7ac;strokeColor=#FFB570;fontStyle=1" parent="1" vertex="1">
          <mxGeometry x="400" y="520" width="130" height="40" as="geometry" />
        </mxCell>
        <mxCell id="AcQt561uoarVermznv3J-13" style="edgeStyle=orthogonalEdgeStyle;rounded=0;orthogonalLoop=1;jettySize=auto;html=1;entryX=0;entryY=0.5;entryDx=0;entryDy=0;" parent="1" source="Mt2DSFejxQS1Zab_X2QU-27" target="AcQt561uoarVermznv3J-7" edge="1">
          <mxGeometry relative="1" as="geometry" />
        </mxCell>
        <mxCell id="Mt2DSFejxQS1Zab_X2QU-27" value="&lt;span style=&quot;font-weight: normal;&quot;&gt;erp_loc_a101&lt;/span&gt;" style="rounded=1;whiteSpace=wrap;html=1;fillColor=#fad7ac;strokeColor=#FFB570;fontStyle=1" parent="1" vertex="1">
          <mxGeometry x="400" y="570" width="130" height="40" as="geometry" />
        </mxCell>
        <mxCell id="AcQt561uoarVermznv3J-14" style="edgeStyle=orthogonalEdgeStyle;rounded=0;orthogonalLoop=1;jettySize=auto;html=1;entryX=0;entryY=0.5;entryDx=0;entryDy=0;" parent="1" source="Mt2DSFejxQS1Zab_X2QU-28" target="AcQt561uoarVermznv3J-8" edge="1">
          <mxGeometry relative="1" as="geometry" />
        </mxCell>
        <mxCell id="Mt2DSFejxQS1Zab_X2QU-28" value="&lt;span style=&quot;font-weight: normal;&quot;&gt;erp_px_cat_g1v2&lt;/span&gt;" style="rounded=1;whiteSpace=wrap;html=1;fillColor=#fad7ac;strokeColor=#FFB570;fontStyle=1" parent="1" vertex="1">
          <mxGeometry x="400" y="620" width="130" height="40" as="geometry" />
        </mxCell>
        <mxCell id="AcQt561uoarVermznv3J-1" value="" style="rounded=1;whiteSpace=wrap;html=1;fillColor=none;strokeColor=#36393d;" parent="1" vertex="1">
          <mxGeometry x="625" y="310" width="160" height="400" as="geometry" />
        </mxCell>
        <mxCell id="AcQt561uoarVermznv3J-2" value="&lt;b&gt;Silver Layer&lt;/b&gt;" style="rounded=1;whiteSpace=wrap;html=1;fillColor=#eeeeee;strokeColor=#36393d;" parent="1" vertex="1">
          <mxGeometry x="640" y="260" width="130" height="40" as="geometry" />
        </mxCell>
        <mxCell id="AcQt561uoarVermznv3J-3" value="&lt;span style=&quot;font-weight: normal;&quot;&gt;crm_cust_info&lt;/span&gt;" style="rounded=1;whiteSpace=wrap;html=1;fillColor=#eeeeee;strokeColor=#36393d;fontStyle=1;" parent="1" vertex="1">
          <mxGeometry x="640" y="330" width="130" height="40" as="geometry" />
        </mxCell>
        <mxCell id="AcQt561uoarVermznv3J-4" value="&lt;span style=&quot;font-weight: normal;&quot;&gt;crm_prd_info&lt;/span&gt;" style="rounded=1;whiteSpace=wrap;html=1;fillColor=#eeeeee;strokeColor=#36393d;fontStyle=1;" parent="1" vertex="1">
          <mxGeometry x="640" y="380" width="130" height="40" as="geometry" />
        </mxCell>
        <mxCell id="AcQt561uoarVermznv3J-5" value="&lt;span style=&quot;font-weight: normal;&quot;&gt;crm_sales_details&lt;/span&gt;" style="rounded=1;whiteSpace=wrap;html=1;fillColor=#eeeeee;strokeColor=#36393d;fontStyle=1;" parent="1" vertex="1">
          <mxGeometry x="640" y="430" width="130" height="40" as="geometry" />
        </mxCell>
        <mxCell id="AcQt561uoarVermznv3J-6" value="&lt;span style=&quot;font-weight: normal;&quot;&gt;erp_cust_az12&lt;/span&gt;" style="rounded=1;whiteSpace=wrap;html=1;fillColor=#eeeeee;strokeColor=#36393d;fontStyle=1;" parent="1" vertex="1">
          <mxGeometry x="640" y="520" width="130" height="40" as="geometry" />
        </mxCell>
        <mxCell id="AcQt561uoarVermznv3J-7" value="&lt;span style=&quot;font-weight: normal;&quot;&gt;erp_loc_a101&lt;/span&gt;" style="rounded=1;whiteSpace=wrap;html=1;fillColor=#eeeeee;strokeColor=#36393d;fontStyle=1;" parent="1" vertex="1">
          <mxGeometry x="640" y="570" width="130" height="40" as="geometry" />
        </mxCell>
        <mxCell id="AcQt561uoarVermznv3J-8" value="&lt;span style=&quot;font-weight: normal;&quot;&gt;erp_px_cat_g1v2&lt;/span&gt;" style="rounded=1;whiteSpace=wrap;html=1;fillColor=#eeeeee;strokeColor=#36393d;fontStyle=1;" parent="1" vertex="1">
          <mxGeometry x="640" y="620" width="130" height="40" as="geometry" />
        </mxCell>
        <mxCell id="AcQt561uoarVermznv3J-15" value="Data Flow Diagram" style="text;html=1;align=center;verticalAlign=middle;whiteSpace=wrap;rounded=0;fontSize=30;fontStyle=1" parent="1" vertex="1">
          <mxGeometry x="90" y="160" width="310" height="30" as="geometry" />
        </mxCell>
        <mxCell id="eDDFbSqknU3OSiNPezgp-1" value="" style="rounded=1;whiteSpace=wrap;html=1;fillColor=none;strokeColor=#d6b656;" parent="1" vertex="1">
          <mxGeometry x="865" y="310" width="160" height="400" as="geometry" />
        </mxCell>
        <mxCell id="eDDFbSqknU3OSiNPezgp-2" value="&lt;b&gt;Gold Layer&lt;/b&gt;" style="rounded=1;whiteSpace=wrap;html=1;fillColor=#fff2cc;strokeColor=#d6b656;" parent="1" vertex="1">
          <mxGeometry x="880" y="260" width="130" height="40" as="geometry" />
        </mxCell>
        <mxCell id="eDDFbSqknU3OSiNPezgp-3" value="&lt;span style=&quot;font-weight: normal;&quot;&gt;fact_sales&lt;/span&gt;" style="rounded=1;whiteSpace=wrap;html=1;fillColor=#fff2cc;strokeColor=#d6b656;fontStyle=1;" parent="1" vertex="1">
          <mxGeometry x="880" y="370" width="130" height="40" as="geometry" />
        </mxCell>
        <mxCell id="eDDFbSqknU3OSiNPezgp-4" value="&lt;span style=&quot;font-weight: normal;&quot;&gt;dim_customers&lt;/span&gt;" style="rounded=1;whiteSpace=wrap;html=1;fillColor=#fff2cc;strokeColor=#d6b656;fontStyle=1;" parent="1" vertex="1">
          <mxGeometry x="880" y="490" width="130" height="40" as="geometry" />
        </mxCell>
        <mxCell id="eDDFbSqknU3OSiNPezgp-5" value="&lt;span style=&quot;font-weight: normal;&quot;&gt;dim_products&lt;/span&gt;" style="rounded=1;whiteSpace=wrap;html=1;fillColor=#fff2cc;strokeColor=#d6b656;fontStyle=1;" parent="1" vertex="1">
          <mxGeometry x="880" y="610" width="130" height="40" as="geometry" />
        </mxCell>
        <mxCell id="eDDFbSqknU3OSiNPezgp-9" value="" style="endArrow=classic;html=1;rounded=0;entryX=0;entryY=0.5;entryDx=0;entryDy=0;jumpStyle=gap;" parent="1" target="eDDFbSqknU3OSiNPezgp-4" edge="1">
          <mxGeometry width="50" height="50" relative="1" as="geometry">
            <mxPoint x="770" y="350" as="sourcePoint" />
            <mxPoint x="835" y="395" as="targetPoint" />
          </mxGeometry>
        </mxCell>
        <mxCell id="eDDFbSqknU3OSiNPezgp-10" value="" style="endArrow=classic;html=1;rounded=0;jumpStyle=gap;" parent="1" edge="1">
          <mxGeometry width="50" height="50" relative="1" as="geometry">
            <mxPoint x="770" y="400" as="sourcePoint" />
            <mxPoint x="880" y="630" as="targetPoint" />
          </mxGeometry>
        </mxCell>
        <mxCell id="eDDFbSqknU3OSiNPezgp-11" value="" style="endArrow=classic;html=1;rounded=0;entryX=0;entryY=0.5;entryDx=0;entryDy=0;jumpStyle=gap;" parent="1" target="eDDFbSqknU3OSiNPezgp-3" edge="1">
          <mxGeometry width="50" height="50" relative="1" as="geometry">
            <mxPoint x="770" y="450" as="sourcePoint" />
            <mxPoint x="820" y="400" as="targetPoint" />
          </mxGeometry>
        </mxCell>
        <mxCell id="eDDFbSqknU3OSiNPezgp-12" value="" style="endArrow=classic;html=1;rounded=0;entryX=0;entryY=0.5;entryDx=0;entryDy=0;exitX=1;exitY=0.5;exitDx=0;exitDy=0;jumpStyle=gap;" parent="1" source="AcQt561uoarVermznv3J-6" target="eDDFbSqknU3OSiNPezgp-4" edge="1">
          <mxGeometry width="50" height="50" relative="1" as="geometry">
            <mxPoint x="775" y="530" as="sourcePoint" />
            <mxPoint x="815" y="490" as="targetPoint" />
          </mxGeometry>
        </mxCell>
        <mxCell id="eDDFbSqknU3OSiNPezgp-13" value="" style="endArrow=classic;html=1;rounded=0;entryX=0;entryY=0.5;entryDx=0;entryDy=0;exitX=1;exitY=0.5;exitDx=0;exitDy=0;jumpStyle=gap;" parent="1" target="eDDFbSqknU3OSiNPezgp-4" edge="1">
          <mxGeometry width="50" height="50" relative="1" as="geometry">
            <mxPoint x="770" y="585" as="sourcePoint" />
            <mxPoint x="880" y="440" as="targetPoint" />
          </mxGeometry>
        </mxCell>
        <mxCell id="eDDFbSqknU3OSiNPezgp-14" value="" style="endArrow=classic;html=1;rounded=0;entryX=0;entryY=0.5;entryDx=0;entryDy=0;jumpStyle=gap;" parent="1" target="eDDFbSqknU3OSiNPezgp-5" edge="1">
          <mxGeometry width="50" height="50" relative="1" as="geometry">
            <mxPoint x="770" y="640" as="sourcePoint" />
            <mxPoint x="820" y="590" as="targetPoint" />
          </mxGeometry>
        </mxCell>
      </root>
    </mxGraphModel>
  </diagram>
</mxfile>
